<svg xmlns="http://www.w3.org/2000/svg" viewBox="0 0 904 200" width="904" height="200" role="img" aria-labelledby="figma-contributions-2026-title figma-contributions-2026-desc" font-family="Manrope, ui-sans-serif, system-ui, -apple-system, 'Segoe UI', sans-serif">
<title id="figma-contributions-2026-title">Figma contributions in 2026</title><desc id="figma-contributions-2026-desc">876 versions on 158 active days.</desc>
<rect x="0.5" y="0.5" width="903" height="199" rx="12" fill="#ffffff" stroke="#ded9d0"/>
<text x="16" y="30" font-size="14" font-weight="600" fill="#1e1b19">876 Figma versions in 2026</text>
<text x="44" y="47" font-size="11" font-weight="500" fill="#756e66">Jan</text>
<text x="124" y="47" font-size="11" font-weight="500" fill="#756e66">Feb</text>
<text x="188" y="47" font-size="11" font-weight="500" fill="#756e66">Mar</text>
<text x="252" y="47" font-size="11" font-weight="500" fill="#756e66">Apr</text>
<text x="316" y="47" font-size="11" font-weight="500" fill="#756e66">May</text>
<text x="396" y="47" font-size="11" font-weight="500" fill="#756e66">Jun</text>
<text x="460" y="47" font-size="11" font-weight="500" fill="#756e66">Jul</text>
<text x="524" y="47" font-size="11" font-weight="500" fill="#756e66">Aug</text>
<text x="604" y="47" font-size="11" font-weight="500" fill="#756e66">Sep</text>
<text x="668" y="47" font-size="11" font-weight="500" fill="#756e66">Oct</text>
<text x="748" y="47" font-size="11" font-weight="500" fill="#756e66">Nov</text>
<text x="812" y="47" font-size="11" font-weight="500" fill="#756e66">Dec</text>
<text x="16" y="78" font-size="11" font-weight="500" fill="#756e66">Mon</text>
<text x="16" y="110" font-size="11" font-weight="500" fill="#756e66">Wed</text>
<text x="16" y="142" font-size="11" font-weight="500" fill="#756e66">Fri</text>
<rect x="44" y="116" width="12" height="12" rx="3" fill="#f1cc70"><title>1 version on Thursday, January 1, 2026</title></rect>
<rect x="44" y="132" width="12" height="12" rx="3" fill="#ece9e3"><title>No versions on Friday, January 2, 2026</title></rect>
<rect x="44" y="148" width="12" height="12" rx="3" fill="#9a7628"><title>6 versions on Saturday, January 3, 2026</title></rect>
<rect x="60" y="52" width="12" height="12" rx="3" fill="#ece9e3"><title>No versions on Sunday, January 4, 2026</title></rect>
<rect x="60" y="68" width="12" height="12" rx="3" fill="#ece9e3"><title>No versions on Monday, January 5, 2026</title></rect>
<rect x="60" y="84" width="12" height="12" rx="3" fill="#ece9e3"><title>No versions on Tuesday, January 6, 2026</title></rect>
<rect x="60" y="100" width="12" height="12" rx="3" fill="#f1cc70"><title>1 version on Wednesday, January 7, 2026</title></rect>
<rect x="60" y="116" width="12" height="12" rx="3" fill="#9a7628"><title>9 versions on Thursday, January 8, 2026</title></rect>
<rect x="60" y="132" width="12" height="12" rx="3" fill="#ece9e3"><title>No versions on Friday, January 9, 2026</title></rect>
<rect x="60" y="148" width="12" height="12" rx="3" fill="#c9a24b"><title>4 versions on Saturday, January 10, 2026</title></rect>
<rect x="76" y="52" width="12" height="12" rx="3" fill="#ece9e3"><title>No versions on Sunday, January 11, 2026</title></rect>
<rect x="76" y="68" width="12" height="12" rx="3" fill="#ece9e3"><title>No versions on Monday, January 12, 2026</title></rect>
<rect x="76" y="84" width="12" height="12" rx="3" fill="#ece9e3"><title>No versions on Tuesday, January 13, 2026</title></rect>
<rect x="76" y="100" width="12" height="12" rx="3" fill="#9a7628"><title>6 versions on Wednesday, January 14, 2026</title></rect>
<rect x="76" y="116" width="12" height="12" rx="3" fill="#ece9e3"><title>No versions on Thursday, January 15, 2026</title></rect>
<rect x="76" y="132" width="12" height="12" rx="3" fill="#f1cc70"><title>2 versions on Friday, January 16, 2026</title></rect>
<rect x="76" y="148" width="12" height="12" rx="3" fill="#9a7628"><title>9 versions on Saturday, January 17, 2026</title></rect>
<rect x="92" y="52" width="12" height="12" rx="3" fill="#ece9e3"><title>No versions on Sunday, January 18, 2026</title></rect>
<rect x="92" y="68" width="12" height="12" rx="3" fill="#ece9e3"><title>No versions on Monday, January 19, 2026</title></rect>
<rect x="92" y="84" width="12" height="12" rx="3" fill="#c9a24b"><title>4 versions on Tuesday, January 20, 2026</title></rect>
<rect x="92" y="100" width="12" height="12" rx="3" fill="#c9a24b"><title>3 versions on Wednesday, January 21, 2026</title></rect>
<rect x="92" y="116" width="12" height="12" rx="3" fill="#f1cc70"><title>1 version on Thursday, January 22, 2026</title></rect>
<rect x="92" y="132" width="12" height="12" rx="3" fill="#ece9e3"><title>No versions on Friday, January 23, 2026</title></rect>
<rect x="92" y="148" width="12" height="12" rx="3" fill="#ece9e3"><title>No versions on Saturday, January 24, 2026</title></rect>
<rect x="108" y="52" width="12" height="12" rx="3" fill="#ece9e3"><title>No versions on Sunday, January 25, 2026</title></rect>
<rect x="108" y="68" width="12" height="12" rx="3" fill="#ece9e3"><title>No versions on Monday, January 26, 2026</title></rect>
<rect x="108" y="84" width="12" height="12" rx="3" fill="#57400f"><title>10 versions on Tuesday, January 27, 2026</title></rect>
<rect x="108" y="100" width="12" height="12" rx="3" fill="#f1cc70"><title>1 version on Wednesday, January 28, 2026</title></rect>
<rect x="108" y="116" width="12" height="12" rx="3" fill="#57400f"><title>10 versions on Thursday, January 29, 2026</title></rect>
<rect x="108" y="132" width="12" height="12" rx="3" fill="#c9a24b"><title>4 versions on Friday, January 30, 2026</title></rect>
<rect x="108" y="148" width="12" height="12" rx="3" fill="#ece9e3"><title>No versions on Saturday, January 31, 2026</title></rect>
<rect x="124" y="52" width="12" height="12" rx="3" fill="#ece9e3"><title>No versions on Sunday, February 1, 2026</title></rect>
<rect x="124" y="68" width="12" height="12" rx="3" fill="#ece9e3"><title>No versions on Monday, February 2, 2026</title></rect>
<rect x="124" y="84" width="12" height="12" rx="3" fill="#9a7628"><title>6 versions on Tuesday, February 3, 2026</title></rect>
<rect x="124" y="100" width="12" height="12" rx="3" fill="#ece9e3"><title>No versions on Wednesday, February 4, 2026</title></rect>
<rect x="124" y="116" width="12" height="12" rx="3" fill="#f1cc70"><title>1 version on Thursday, February 5, 2026</title></rect>
<rect x="124" y="132" width="12" height="12" rx="3" fill="#57400f"><title>16 versions on Friday, February 6, 2026</title></rect>
<rect x="124" y="148" width="12" height="12" rx="3" fill="#9a7628"><title>8 versions on Saturday, February 7, 2026</title></rect>
<rect x="140" y="52" width="12" height="12" rx="3" fill="#ece9e3"><title>No versions on Sunday, February 8, 2026</title></rect>
<rect x="140" y="68" width="12" height="12" rx="3" fill="#ece9e3"><title>No versions on Monday, February 9, 2026</title></rect>
<rect x="140" y="84" width="12" height="12" rx="3" fill="#f1cc70"><title>1 version on Tuesday, February 10, 2026</title></rect>
<rect x="140" y="100" width="12" height="12" rx="3" fill="#f1cc70"><title>1 version on Wednesday, February 11, 2026</title></rect>
<rect x="140" y="116" width="12" height="12" rx="3" fill="#c9a24b"><title>5 versions on Thursday, February 12, 2026</title></rect>
<rect x="140" y="132" width="12" height="12" rx="3" fill="#ece9e3"><title>No versions on Friday, February 13, 2026</title></rect>
<rect x="140" y="148" width="12" height="12" rx="3" fill="#f1cc70"><title>1 version on Saturday, February 14, 2026</title></rect>
<rect x="156" y="52" width="12" height="12" rx="3" fill="#ece9e3"><title>No versions on Sunday, February 15, 2026</title></rect>
<rect x="156" y="68" width="12" height="12" rx="3" fill="#9a7628"><title>7 versions on Monday, February 16, 2026</title></rect>
<rect x="156" y="84" width="12" height="12" rx="3" fill="#ece9e3"><title>No versions on Tuesday, February 17, 2026</title></rect>
<rect x="156" y="100" width="12" height="12" rx="3" fill="#57400f"><title>11 versions on Wednesday, February 18, 2026</title></rect>
<rect x="156" y="116" width="12" height="12" rx="3" fill="#57400f"><title>11 versions on Thursday, February 19, 2026</title></rect>
<rect x="156" y="132" width="12" height="12" rx="3" fill="#ece9e3"><title>No versions on Friday, February 20, 2026</title></rect>
<rect x="156" y="148" width="12" height="12" rx="3" fill="#f1cc70"><title>1 version on Saturday, February 21, 2026</title></rect>
<rect x="172" y="52" width="12" height="12" rx="3" fill="#ece9e3"><title>No versions on Sunday, February 22, 2026</title></rect>
<rect x="172" y="68" width="12" height="12" rx="3" fill="#ece9e3"><title>No versions on Monday, February 23, 2026</title></rect>
<rect x="172" y="84" width="12" height="12" rx="3" fill="#f1cc70"><title>1 version on Tuesday, February 24, 2026</title></rect>
<rect x="172" y="100" width="12" height="12" rx="3" fill="#f1cc70"><title>1 version on Wednesday, February 25, 2026</title></rect>
<rect x="172" y="116" width="12" height="12" rx="3" fill="#9a7628"><title>6 versions on Thursday, February 26, 2026</title></rect>
<rect x="172" y="132" width="12" height="12" rx="3" fill="#f1cc70"><title>1 version on Friday, February 27, 2026</title></rect>
<rect x="172" y="148" width="12" height="12" rx="3" fill="#f1cc70"><title>2 versions on Saturday, February 28, 2026</title></rect>
<rect x="188" y="52" width="12" height="12" rx="3" fill="#c9a24b"><title>4 versions on Sunday, March 1, 2026</title></rect>
<rect x="188" y="68" width="12" height="12" rx="3" fill="#ece9e3"><title>No versions on Monday, March 2, 2026</title></rect>
<rect x="188" y="84" width="12" height="12" rx="3" fill="#ece9e3"><title>No versions on Tuesday, March 3, 2026</title></rect>
<rect x="188" y="100" width="12" height="12" rx="3" fill="#57400f"><title>11 versions on Wednesday, March 4, 2026</title></rect>
<rect x="188" y="116" width="12" height="12" rx="3" fill="#ece9e3"><title>No versions on Thursday, March 5, 2026</title></rect>
<rect x="188" y="132" width="12" height="12" rx="3" fill="#f1cc70"><title>1 version on Friday, March 6, 2026</title></rect>
<rect x="188" y="148" width="12" height="12" rx="3" fill="#ece9e3"><title>No versions on Saturday, March 7, 2026</title></rect>
<rect x="204" y="52" width="12" height="12" rx="3" fill="#ece9e3"><title>No versions on Sunday, March 8, 2026</title></rect>
<rect x="204" y="68" width="12" height="12" rx="3" fill="#57400f"><title>15 versions on Monday, March 9, 2026</title></rect>
<rect x="204" y="84" width="12" height="12" rx="3" fill="#f1cc70"><title>1 version on Tuesday, March 10, 2026</title></rect>
<rect x="204" y="100" width="12" height="12" rx="3" fill="#9a7628"><title>6 versions on Wednesday, March 11, 2026</title></rect>
<rect x="204" y="116" width="12" height="12" rx="3" fill="#f1cc70"><title>1 version on Thursday, March 12, 2026</title></rect>
<rect x="204" y="132" width="12" height="12" rx="3" fill="#ece9e3"><title>No versions on Friday, March 13, 2026</title></rect>
<rect x="204" y="148" width="12" height="12" rx="3" fill="#c9a24b"><title>5 versions on Saturday, March 14, 2026</title></rect>
<rect x="220" y="52" width="12" height="12" rx="3" fill="#ece9e3"><title>No versions on Sunday, March 15, 2026</title></rect>
<rect x="220" y="68" width="12" height="12" rx="3" fill="#ece9e3"><title>No versions on Monday, March 16, 2026</title></rect>
<rect x="220" y="84" width="12" height="12" rx="3" fill="#ece9e3"><title>No versions on Tuesday, March 17, 2026</title></rect>
<rect x="220" y="100" width="12" height="12" rx="3" fill="#9a7628"><title>8 versions on Wednesday, March 18, 2026</title></rect>
<rect x="220" y="116" width="12" height="12" rx="3" fill="#c9a24b"><title>3 versions on Thursday, March 19, 2026</title></rect>
<rect x="220" y="132" width="12" height="12" rx="3" fill="#9a7628"><title>8 versions on Friday, March 20, 2026</title></rect>
<rect x="220" y="148" width="12" height="12" rx="3" fill="#57400f"><title>13 versions on Saturday, March 21, 2026</title></rect>
<rect x="236" y="52" width="12" height="12" rx="3" fill="#ece9e3"><title>No versions on Sunday, March 22, 2026</title></rect>
<rect x="236" y="68" width="12" height="12" rx="3" fill="#ece9e3"><title>No versions on Monday, March 23, 2026</title></rect>
<rect x="236" y="84" width="12" height="12" rx="3" fill="#c9a24b"><title>3 versions on Tuesday, March 24, 2026</title></rect>
<rect x="236" y="100" width="12" height="12" rx="3" fill="#ece9e3"><title>No versions on Wednesday, March 25, 2026</title></rect>
<rect x="236" y="116" width="12" height="12" rx="3" fill="#f1cc70"><title>1 version on Thursday, March 26, 2026</title></rect>
<rect x="236" y="132" width="12" height="12" rx="3" fill="#f1cc70"><title>1 version on Friday, March 27, 2026</title></rect>
<rect x="236" y="148" width="12" height="12" rx="3" fill="#ece9e3"><title>No versions on Saturday, March 28, 2026</title></rect>
<rect x="252" y="52" width="12" height="12" rx="3" fill="#ece9e3"><title>No versions on Sunday, March 29, 2026</title></rect>
<rect x="252" y="68" width="12" height="12" rx="3" fill="#ece9e3"><title>No versions on Monday, March 30, 2026</title></rect>
<rect x="252" y="84" width="12" height="12" rx="3" fill="#ece9e3"><title>No versions on Tuesday, March 31, 2026</title></rect>
<rect x="252" y="100" width="12" height="12" rx="3" fill="#57400f"><title>12 versions on Wednesday, April 1, 2026</title></rect>
<rect x="252" y="116" width="12" height="12" rx="3" fill="#f1cc70"><title>2 versions on Thursday, April 2, 2026</title></rect>
<rect x="252" y="132" width="12" height="12" rx="3" fill="#ece9e3"><title>No versions on Friday, April 3, 2026</title></rect>
<rect x="252" y="148" width="12" height="12" rx="3" fill="#f1cc70"><title>2 versions on Saturday, April 4, 2026</title></rect>
<rect x="268" y="52" width="12" height="12" rx="3" fill="#57400f"><title>10 versions on Sunday, April 5, 2026</title></rect>
<rect x="268" y="68" width="12" height="12" rx="3" fill="#ece9e3"><title>No versions on Monday, April 6, 2026</title></rect>
<rect x="268" y="84" width="12" height="12" rx="3" fill="#9a7628"><title>8 versions on Tuesday, April 7, 2026</title></rect>
<rect x="268" y="100" width="12" height="12" rx="3" fill="#9a7628"><title>9 versions on Wednesday, April 8, 2026</title></rect>
<rect x="268" y="116" width="12" height="12" rx="3" fill="#ece9e3"><title>No versions on Thursday, April 9, 2026</title></rect>
<rect x="268" y="132" width="12" height="12" rx="3" fill="#f1cc70"><title>1 version on Friday, April 10, 2026</title></rect>
<rect x="268" y="148" width="12" height="12" rx="3" fill="#c9a24b"><title>3 versions on Saturday, April 11, 2026</title></rect>
<rect x="284" y="52" width="12" height="12" rx="3" fill="#ece9e3"><title>No versions on Sunday, April 12, 2026</title></rect>
<rect x="284" y="68" width="12" height="12" rx="3" fill="#ece9e3"><title>No versions on Monday, April 13, 2026</title></rect>
<rect x="284" y="84" width="12" height="12" rx="3" fill="#ece9e3"><title>No versions on Tuesday, April 14, 2026</title></rect>
<rect x="284" y="100" width="12" height="12" rx="3" fill="#57400f"><title>13 versions on Wednesday, April 15, 2026</title></rect>
<rect x="284" y="116" width="12" height="12" rx="3" fill="#f1cc70"><title>1 version on Thursday, April 16, 2026</title></rect>
<rect x="284" y="132" width="12" height="12" rx="3" fill="#c9a24b"><title>4 versions on Friday, April 17, 2026</title></rect>
<rect x="284" y="148" width="12" height="12" rx="3" fill="#9a7628"><title>6 versions on Saturday, April 18, 2026</title></rect>
<rect x="300" y="52" width="12" height="12" rx="3" fill="#c9a24b"><title>3 versions on Sunday, April 19, 2026</title></rect>
<rect x="300" y="68" width="12" height="12" rx="3" fill="#f1cc70"><title>1 version on Monday, April 20, 2026</title></rect>
<rect x="300" y="84" width="12" height="12" rx="3" fill="#57400f"><title>10 versions on Tuesday, April 21, 2026</title></rect>
<rect x="300" y="100" width="12" height="12" rx="3" fill="#57400f"><title>12 versions on Wednesday, April 22, 2026</title></rect>
<rect x="300" y="116" width="12" height="12" rx="3" fill="#9a7628"><title>9 versions on Thursday, April 23, 2026</title></rect>
<rect x="300" y="132" width="12" height="12" rx="3" fill="#f1cc70"><title>1 version on Friday, April 24, 2026</title></rect>
<rect x="300" y="148" width="12" height="12" rx="3" fill="#ece9e3"><title>No versions on Saturday, April 25, 2026</title></rect>
<rect x="316" y="52" width="12" height="12" rx="3" fill="#ece9e3"><title>No versions on Sunday, April 26, 2026</title></rect>
<rect x="316" y="68" width="12" height="12" rx="3" fill="#ece9e3"><title>No versions on Monday, April 27, 2026</title></rect>
<rect x="316" y="84" width="12" height="12" rx="3" fill="#f1cc70"><title>1 version on Tuesday, April 28, 2026</title></rect>
<rect x="316" y="100" width="12" height="12" rx="3" fill="#c9a24b"><title>4 versions on Wednesday, April 29, 2026</title></rect>
<rect x="316" y="116" width="12" height="12" rx="3" fill="#ece9e3"><title>No versions on Thursday, April 30, 2026</title></rect>
<rect x="316" y="132" width="12" height="12" rx="3" fill="#f1cc70"><title>1 version on Friday, May 1, 2026</title></rect>
<rect x="316" y="148" width="12" height="12" rx="3" fill="#57400f"><title>13 versions on Saturday, May 2, 2026</title></rect>
<rect x="332" y="52" width="12" height="12" rx="3" fill="#ece9e3"><title>No versions on Sunday, May 3, 2026</title></rect>
<rect x="332" y="68" width="12" height="12" rx="3" fill="#ece9e3"><title>No versions on Monday, May 4, 2026</title></rect>
<rect x="332" y="84" width="12" height="12" rx="3" fill="#9a7628"><title>8 versions on Tuesday, May 5, 2026</title></rect>
<rect x="332" y="100" width="12" height="12" rx="3" fill="#ece9e3"><title>No versions on Wednesday, May 6, 2026</title></rect>
<rect x="332" y="116" width="12" height="12" rx="3" fill="#9a7628"><title>9 versions on Thursday, May 7, 2026</title></rect>
<rect x="332" y="132" width="12" height="12" rx="3" fill="#ece9e3"><title>No versions on Friday, May 8, 2026</title></rect>
<rect x="332" y="148" width="12" height="12" rx="3" fill="#57400f"><title>12 versions on Saturday, May 9, 2026</title></rect>
<rect x="348" y="52" width="12" height="12" rx="3" fill="#9a7628"><title>8 versions on Sunday, May 10, 2026</title></rect>
<rect x="348" y="68" width="12" height="12" rx="3" fill="#ece9e3"><title>No versions on Monday, May 11, 2026</title></rect>
<rect x="348" y="84" width="12" height="12" rx="3" fill="#ece9e3"><title>No versions on Tuesday, May 12, 2026</title></rect>
<rect x="348" y="100" width="12" height="12" rx="3" fill="#57400f"><title>10 versions on Wednesday, May 13, 2026</title></rect>
<rect x="348" y="116" width="12" height="12" rx="3" fill="#ece9e3"><title>No versions on Thursday, May 14, 2026</title></rect>
<rect x="348" y="132" width="12" height="12" rx="3" fill="#57400f"><title>15 versions on Friday, May 15, 2026</title></rect>
<rect x="348" y="148" width="12" height="12" rx="3" fill="#ece9e3"><title>No versions on Saturday, May 16, 2026</title></rect>
<rect x="364" y="52" width="12" height="12" rx="3" fill="#ece9e3"><title>No versions on Sunday, May 17, 2026</title></rect>
<rect x="364" y="68" width="12" height="12" rx="3" fill="#ece9e3"><title>No versions on Monday, May 18, 2026</title></rect>
<rect x="364" y="84" width="12" height="12" rx="3" fill="#c9a24b"><title>3 versions on Tuesday, May 19, 2026</title></rect>
<rect x="364" y="100" width="12" height="12" rx="3" fill="#9a7628"><title>6 versions on Wednesday, May 20, 2026</title></rect>
<rect x="364" y="116" width="12" height="12" rx="3" fill="#ece9e3"><title>No versions on Thursday, May 21, 2026</title></rect>
<rect x="364" y="132" width="12" height="12" rx="3" fill="#f1cc70"><title>1 version on Friday, May 22, 2026</title></rect>
<rect x="364" y="148" width="12" height="12" rx="3" fill="#ece9e3"><title>No versions on Saturday, May 23, 2026</title></rect>
<rect x="380" y="52" width="12" height="12" rx="3" fill="#ece9e3"><title>No versions on Sunday, May 24, 2026</title></rect>
<rect x="380" y="68" width="12" height="12" rx="3" fill="#ece9e3"><title>No versions on Monday, May 25, 2026</title></rect>
<rect x="380" y="84" width="12" height="12" rx="3" fill="#c9a24b"><title>4 versions on Tuesday, May 26, 2026</title></rect>
<rect x="380" y="100" width="12" height="12" rx="3" fill="#ece9e3"><title>No versions on Wednesday, May 27, 2026</title></rect>
<rect x="380" y="116" width="12" height="12" rx="3" fill="#ece9e3"><title>No versions on Thursday, May 28, 2026</title></rect>
<rect x="380" y="132" width="12" height="12" rx="3" fill="#f1cc70"><title>1 version on Friday, May 29, 2026</title></rect>
<rect x="380" y="148" width="12" height="12" rx="3" fill="#c9a24b"><title>3 versions on Saturday, May 30, 2026</title></rect>
<rect x="396" y="52" width="12" height="12" rx="3" fill="#ece9e3"><title>No versions on Sunday, May 31, 2026</title></rect>
<rect x="396" y="68" width="12" height="12" rx="3" fill="#57400f"><title>13 versions on Monday, June 1, 2026</title></rect>
<rect x="396" y="84" width="12" height="12" rx="3" fill="#f1cc70"><title>1 version on Tuesday, June 2, 2026</title></rect>
<rect x="396" y="100" width="12" height="12" rx="3" fill="#c9a24b"><title>3 versions on Wednesday, June 3, 2026</title></rect>
<rect x="396" y="116" width="12" height="12" rx="3" fill="#f1cc70"><title>2 versions on Thursday, June 4, 2026</title></rect>
<rect x="396" y="132" width="12" height="12" rx="3" fill="#ece9e3"><title>No versions on Friday, June 5, 2026</title></rect>
<rect x="396" y="148" width="12" height="12" rx="3" fill="#9a7628"><title>9 versions on Saturday, June 6, 2026</title></rect>
<rect x="412" y="52" width="12" height="12" rx="3" fill="#f1cc70"><title>2 versions on Sunday, June 7, 2026</title></rect>
<rect x="412" y="68" width="12" height="12" rx="3" fill="#ece9e3"><title>No versions on Monday, June 8, 2026</title></rect>
<rect x="412" y="84" width="12" height="12" rx="3" fill="#ece9e3"><title>No versions on Tuesday, June 9, 2026</title></rect>
<rect x="412" y="100" width="12" height="12" rx="3" fill="#57400f"><title>13 versions on Wednesday, June 10, 2026</title></rect>
<rect x="412" y="116" width="12" height="12" rx="3" fill="#f1cc70"><title>1 version on Thursday, June 11, 2026</title></rect>
<rect x="412" y="132" width="12" height="12" rx="3" fill="#9a7628"><title>9 versions on Friday, June 12, 2026</title></rect>
<rect x="412" y="148" width="12" height="12" rx="3" fill="#ece9e3"><title>No versions on Saturday, June 13, 2026</title></rect>
<rect x="428" y="52" width="12" height="12" rx="3" fill="#ece9e3"><title>No versions on Sunday, June 14, 2026</title></rect>
<rect x="428" y="68" width="12" height="12" rx="3" fill="#ece9e3"><title>No versions on Monday, June 15, 2026</title></rect>
<rect x="428" y="84" width="12" height="12" rx="3" fill="#ece9e3"><title>No versions on Tuesday, June 16, 2026</title></rect>
<rect x="428" y="100" width="12" height="12" rx="3" fill="#ece9e3"><title>No versions on Wednesday, June 17, 2026</title></rect>
<rect x="428" y="116" width="12" height="12" rx="3" fill="#57400f"><title>10 versions on Thursday, June 18, 2026</title></rect>
<rect x="428" y="132" width="12" height="12" rx="3" fill="#57400f"><title>14 versions on Friday, June 19, 2026</title></rect>
<rect x="428" y="148" width="12" height="12" rx="3" fill="#ece9e3"><title>No versions on Saturday, June 20, 2026</title></rect>
<rect x="444" y="52" width="12" height="12" rx="3" fill="#ece9e3"><title>No versions on Sunday, June 21, 2026</title></rect>
<rect x="444" y="68" width="12" height="12" rx="3" fill="#ece9e3"><title>No versions on Monday, June 22, 2026</title></rect>
<rect x="444" y="84" width="12" height="12" rx="3" fill="#9a7628"><title>9 versions on Tuesday, June 23, 2026</title></rect>
<rect x="444" y="100" width="12" height="12" rx="3" fill="#57400f"><title>14 versions on Wednesday, June 24, 2026</title></rect>
<rect x="444" y="116" width="12" height="12" rx="3" fill="#c9a24b"><title>3 versions on Thursday, June 25, 2026</title></rect>
<rect x="444" y="132" width="12" height="12" rx="3" fill="#c9a24b"><title>4 versions on Friday, June 26, 2026</title></rect>
<rect x="444" y="148" width="12" height="12" rx="3" fill="#ece9e3"><title>No versions on Saturday, June 27, 2026</title></rect>
<rect x="460" y="52" width="12" height="12" rx="3" fill="#ece9e3"><title>No versions on Sunday, June 28, 2026</title></rect>
<rect x="460" y="68" width="12" height="12" rx="3" fill="#ece9e3"><title>No versions on Monday, June 29, 2026</title></rect>
<rect x="460" y="84" width="12" height="12" rx="3" fill="#ece9e3"><title>No versions on Tuesday, June 30, 2026</title></rect>
<rect x="460" y="100" width="12" height="12" rx="3" fill="#9a7628"><title>6 versions on Wednesday, July 1, 2026</title></rect>
<rect x="460" y="116" width="12" height="12" rx="3" fill="#57400f"><title>13 versions on Thursday, July 2, 2026</title></rect>
<rect x="460" y="132" width="12" height="12" rx="3" fill="#ece9e3"><title>No versions on Friday, July 3, 2026</title></rect>
<rect x="460" y="148" width="12" height="12" rx="3" fill="#ece9e3"><title>No versions on Saturday, July 4, 2026</title></rect>
<rect x="476" y="52" width="12" height="12" rx="3" fill="#ece9e3"><title>No versions on Sunday, July 5, 2026</title></rect>
<rect x="476" y="68" width="12" height="12" rx="3" fill="#ece9e3"><title>No versions on Monday, July 6, 2026</title></rect>
<rect x="476" y="84" width="12" height="12" rx="3" fill="#ece9e3"><title>No versions on Tuesday, July 7, 2026</title></rect>
<rect x="476" y="100" width="12" height="12" rx="3" fill="#57400f"><title>16 versions on Wednesday, July 8, 2026</title></rect>
<rect x="476" y="116" width="12" height="12" rx="3" fill="#ece9e3"><title>No versions on Thursday, July 9, 2026</title></rect>
<rect x="476" y="132" width="12" height="12" rx="3" fill="#57400f"><title>10 versions on Friday, July 10, 2026</title></rect>
<rect x="476" y="148" width="12" height="12" rx="3" fill="#f1cc70"><title>1 version on Saturday, July 11, 2026</title></rect>
<rect x="492" y="52" width="12" height="12" rx="3" fill="#ece9e3"><title>No versions on Sunday, July 12, 2026</title></rect>
<rect x="492" y="68" width="12" height="12" rx="3" fill="#ece9e3"><title>No versions on Monday, July 13, 2026</title></rect>
<rect x="492" y="84" width="12" height="12" rx="3" fill="#9a7628"><title>8 versions on Tuesday, July 14, 2026</title></rect>
<rect x="492" y="100" width="12" height="12" rx="3" fill="#f1cc70"><title>1 version on Wednesday, July 15, 2026</title></rect>
<rect x="492" y="116" width="12" height="12" rx="3" fill="#57400f"><title>13 versions on Thursday, July 16, 2026</title></rect>
<rect x="492" y="132" width="12" height="12" rx="3" fill="#f1cc70"><title>1 version on Friday, July 17, 2026</title></rect>
<rect x="492" y="148" width="12" height="12" rx="3" fill="#ece9e3"><title>No versions on Saturday, July 18, 2026</title></rect>
<rect x="508" y="52" width="12" height="12" rx="3" fill="#ece9e3"><title>No versions on Sunday, July 19, 2026</title></rect>
<rect x="508" y="68" width="12" height="12" rx="3" fill="#f1cc70"><title>1 version on Monday, July 20, 2026</title></rect>
<rect x="508" y="84" width="12" height="12" rx="3" fill="#f1cc70"><title>1 version on Tuesday, July 21, 2026</title></rect>
<rect x="508" y="100" width="12" height="12" rx="3" fill="#f1cc70"><title>1 version on Wednesday, July 22, 2026</title></rect>
<rect x="508" y="116" width="12" height="12" rx="3" fill="#f1cc70"><title>1 version on Thursday, July 23, 2026</title></rect>
<rect x="508" y="132" width="12" height="12" rx="3" fill="#57400f"><title>12 versions on Friday, July 24, 2026</title></rect>
<rect x="508" y="148" width="12" height="12" rx="3" fill="#f1cc70"><title>1 version on Saturday, July 25, 2026</title></rect>
<rect x="524" y="52" width="12" height="12" rx="3" fill="#f1cc70"><title>1 version on Sunday, July 26, 2026</title></rect>
<rect x="524" y="68" width="12" height="12" rx="3" fill="#ece9e3"><title>No versions on Monday, July 27, 2026</title></rect>
<rect x="524" y="84" width="12" height="12" rx="3" fill="#c9a24b"><title>3 versions on Tuesday, July 28, 2026</title></rect>
<rect x="524" y="100" width="12" height="12" rx="3" fill="#f1cc70"><title>1 version on Wednesday, July 29, 2026</title></rect>
<rect x="524" y="116" width="12" height="12" rx="3" fill="#ece9e3"><title>No versions on Thursday, July 30, 2026</title></rect>
<rect x="524" y="132" width="12" height="12" rx="3" fill="#f1cc70"><title>2 versions on Friday, July 31, 2026</title></rect>
<rect x="524" y="148" width="12" height="12" rx="3" fill="#f1cc70"><title>1 version on Saturday, August 1, 2026</title></rect>
<rect x="540" y="52" width="12" height="12" rx="3" fill="#ece9e3"><title>No versions on Sunday, August 2, 2026</title></rect>
<rect x="540" y="68" width="12" height="12" rx="3" fill="#ece9e3"><title>No versions on Monday, August 3, 2026</title></rect>
<rect x="540" y="84" width="12" height="12" rx="3" fill="#c9a24b"><title>3 versions on Tuesday, August 4, 2026</title></rect>
<rect x="540" y="100" width="12" height="12" rx="3" fill="#57400f"><title>14 versions on Wednesday, August 5, 2026</title></rect>
<rect x="540" y="116" width="12" height="12" rx="3" fill="#9a7628"><title>6 versions on Thursday, August 6, 2026</title></rect>
<rect x="540" y="132" width="12" height="12" rx="3" fill="#f1cc70"><title>1 version on Friday, August 7, 2026</title></rect>
<rect x="540" y="148" width="12" height="12" rx="3" fill="#f1cc70"><title>1 version on Saturday, August 8, 2026</title></rect>
<rect x="556" y="52" width="12" height="12" rx="3" fill="#ece9e3"><title>No versions on Sunday, August 9, 2026</title></rect>
<rect x="556" y="68" width="12" height="12" rx="3" fill="#9a7628"><title>7 versions on Monday, August 10, 2026</title></rect>
<rect x="556" y="84" width="12" height="12" rx="3" fill="#f1cc70"><title>1 version on Tuesday, August 11, 2026</title></rect>
<rect x="556" y="100" width="12" height="12" rx="3" fill="#57400f"><title>12 versions on Wednesday, August 12, 2026</title></rect>
<rect x="556" y="116" width="12" height="12" rx="3" fill="#f1cc70"><title>1 version on Thursday, August 13, 2026</title></rect>
<rect x="556" y="132" width="12" height="12" rx="3" fill="#f1cc70"><title>1 version on Friday, August 14, 2026</title></rect>
<rect x="556" y="148" width="12" height="12" rx="3" fill="#f1cc70"><title>1 version on Saturday, August 15, 2026</title></rect>
<rect x="572" y="52" width="12" height="12" rx="3" fill="#ece9e3"><title>No versions on Sunday, August 16, 2026</title></rect>
<rect x="572" y="68" width="12" height="12" rx="3" fill="#ece9e3"><title>No versions on Monday, August 17, 2026</title></rect>
<rect x="572" y="84" width="12" height="12" rx="3" fill="#9a7628"><title>9 versions on Tuesday, August 18, 2026</title></rect>
<rect x="572" y="100" width="12" height="12" rx="3" fill="#57400f"><title>10 versions on Wednesday, August 19, 2026</title></rect>
<rect x="572" y="116" width="12" height="12" rx="3" fill="#ece9e3"><title>No versions on Thursday, August 20, 2026</title></rect>
<rect x="572" y="132" width="12" height="12" rx="3" fill="#c9a24b"><title>5 versions on Friday, August 21, 2026</title></rect>
<rect x="572" y="148" width="12" height="12" rx="3" fill="#c9a24b"><title>4 versions on Saturday, August 22, 2026</title></rect>
<rect x="588" y="52" width="12" height="12" rx="3" fill="#ece9e3"><title>No versions on Sunday, August 23, 2026</title></rect>
<rect x="588" y="68" width="12" height="12" rx="3" fill="#ece9e3"><title>No versions on Monday, August 24, 2026</title></rect>
<rect x="588" y="84" width="12" height="12" rx="3" fill="#9a7628"><title>9 versions on Tuesday, August 25, 2026</title></rect>
<rect x="588" y="100" width="12" height="12" rx="3" fill="#ece9e3"><title>No versions on Wednesday, August 26, 2026</title></rect>
<rect x="588" y="116" width="12" height="12" rx="3" fill="#ece9e3"><title>No versions on Thursday, August 27, 2026</title></rect>
<rect x="588" y="132" width="12" height="12" rx="3" fill="#f1cc70"><title>1 version on Friday, August 28, 2026</title></rect>
<rect x="588" y="148" width="12" height="12" rx="3" fill="#f1cc70"><title>1 version on Saturday, August 29, 2026</title></rect>
<rect x="604" y="52" width="12" height="12" rx="3" fill="#ece9e3"><title>No versions on Sunday, August 30, 2026</title></rect>
<rect x="604" y="68" width="12" height="12" rx="3" fill="#57400f"><title>10 versions on Monday, August 31, 2026</title></rect>
<rect x="604" y="84" width="12" height="12" rx="3" fill="#f1cc70"><title>1 version on Tuesday, September 1, 2026</title></rect>
<rect x="604" y="100" width="12" height="12" rx="3" fill="#ece9e3"><title>No versions on Wednesday, September 2, 2026</title></rect>
<rect x="604" y="116" width="12" height="12" rx="3" fill="#57400f"><title>15 versions on Thursday, September 3, 2026</title></rect>
<rect x="604" y="132" width="12" height="12" rx="3" fill="#57400f"><title>15 versions on Friday, September 4, 2026</title></rect>
<rect x="604" y="148" width="12" height="12" rx="3" fill="#57400f"><title>13 versions on Saturday, September 5, 2026</title></rect>
<rect x="620" y="52" width="12" height="12" rx="3" fill="#ece9e3"><title>No versions on Sunday, September 6, 2026</title></rect>
<rect x="620" y="68" width="12" height="12" rx="3" fill="#ece9e3"><title>No versions on Monday, September 7, 2026</title></rect>
<rect x="620" y="84" width="12" height="12" rx="3" fill="#ece9e3"><title>No versions on Tuesday, September 8, 2026</title></rect>
<rect x="620" y="100" width="12" height="12" rx="3" fill="#57400f"><title>12 versions on Wednesday, September 9, 2026</title></rect>
<rect x="620" y="116" width="12" height="12" rx="3" fill="#ece9e3"><title>No versions on Thursday, September 10, 2026</title></rect>
<rect x="620" y="132" width="12" height="12" rx="3" fill="#f1cc70"><title>2 versions on Friday, September 11, 2026</title></rect>
<rect x="620" y="148" width="12" height="12" rx="3" fill="#ece9e3"><title>No versions on Saturday, September 12, 2026</title></rect>
<rect x="636" y="52" width="12" height="12" rx="3" fill="#ece9e3"><title>No versions on Sunday, September 13, 2026</title></rect>
<rect x="636" y="68" width="12" height="12" rx="3" fill="#57400f"><title>15 versions on Monday, September 14, 2026</title></rect>
<rect x="636" y="84" width="12" height="12" rx="3" fill="#ece9e3"><title>No versions on Tuesday, September 15, 2026</title></rect>
<rect x="636" y="100" width="12" height="12" rx="3" fill="#f1cc70"><title>1 version on Wednesday, September 16, 2026</title></rect>
<rect x="636" y="116" width="12" height="12" rx="3" fill="#f1cc70"><title>1 version on Thursday, September 17, 2026</title></rect>
<rect x="636" y="132" width="12" height="12" rx="3" fill="#c9a24b"><title>3 versions on Friday, September 18, 2026</title></rect>
<rect x="636" y="148" width="12" height="12" rx="3" fill="#f1cc70"><title>1 version on Saturday, September 19, 2026</title></rect>
<rect x="652" y="52" width="12" height="12" rx="3" fill="#ece9e3"><title>No versions on Sunday, September 20, 2026</title></rect>
<rect x="652" y="68" width="12" height="12" rx="3" fill="#ece9e3"><title>No versions on Monday, September 21, 2026</title></rect>
<rect x="652" y="84" width="12" height="12" rx="3" fill="#9a7628"><title>6 versions on Tuesday, September 22, 2026</title></rect>
<rect x="652" y="100" width="12" height="12" rx="3" fill="#9a7628"><title>6 versions on Wednesday, September 23, 2026</title></rect>
<rect x="652" y="116" width="12" height="12" rx="3" fill="#c9a24b"><title>3 versions on Thursday, September 24, 2026</title></rect>
<rect x="652" y="132" width="12" height="12" rx="3" fill="#c9a24b"><title>5 versions on Friday, September 25, 2026</title></rect>
<rect x="652" y="148" width="12" height="12" rx="3" fill="#f1cc70"><title>1 version on Saturday, September 26, 2026</title></rect>
<rect x="668" y="52" width="12" height="12" rx="3" fill="#ece9e3"><title>No versions on Sunday, September 27, 2026</title></rect>
<rect x="668" y="68" width="12" height="12" rx="3" fill="#ece9e3"><title>No versions on Monday, September 28, 2026</title></rect>
<rect x="668" y="84" width="12" height="12" rx="3" fill="#f1cc70"><title>1 version on Tuesday, September 29, 2026</title></rect>
<rect x="668" y="100" width="12" height="12" rx="3" fill="#9a7628"><title>6 versions on Wednesday, September 30, 2026</title></rect>
<rect x="668" y="116" width="12" height="12" rx="3" fill="#f1cc70"><title>1 version on Thursday, October 1, 2026</title></rect>
<rect x="668" y="132" width="12" height="12" rx="3" fill="#ece9e3"><title>No versions on Friday, October 2, 2026</title></rect>
<rect x="668" y="148" width="12" height="12" rx="3" fill="#f1cc70"><title>1 version on Saturday, October 3, 2026</title></rect>
<rect x="684" y="52" width="12" height="12" rx="3" fill="#ece9e3"><title>No versions on Sunday, October 4, 2026</title></rect>
<rect x="684" y="68" width="12" height="12" rx="3" fill="#57400f"><title>14 versions on Monday, October 5, 2026</title></rect>
<rect x="684" y="84" width="12" height="12" rx="3" fill="#f1cc70"><title>2 versions on Tuesday, October 6, 2026</title></rect>
<rect x="684" y="100" width="12" height="12" rx="3" fill="#57400f"><title>15 versions on Wednesday, October 7, 2026</title></rect>
<rect x="684" y="116" width="12" height="12" rx="3" fill="#ece9e3"><title>No versions on Thursday, October 8, 2026</title></rect>
<rect x="684" y="132" width="12" height="12" rx="3" fill="#ece9e3"><title>No versions on Friday, October 9, 2026</title></rect>
<rect x="684" y="148" width="12" height="12" rx="3" fill="#ece9e3"><title>No versions on Saturday, October 10, 2026</title></rect>
<rect x="700" y="52" width="12" height="12" rx="3" fill="#ece9e3"><title>No versions on Sunday, October 11, 2026</title></rect>
<rect x="700" y="68" width="12" height="12" rx="3" fill="#ece9e3"><title>No versions on Monday, October 12, 2026</title></rect>
<rect x="700" y="84" width="12" height="12" rx="3" fill="#ece9e3"><title>No versions on Tuesday, October 13, 2026</title></rect>
<rect x="700" y="100" width="12" height="12" rx="3" fill="#ece9e3"><title>No versions on Wednesday, October 14, 2026</title></rect>
<rect x="700" y="116" width="12" height="12" rx="3" fill="#ece9e3"><title>No versions on Thursday, October 15, 2026</title></rect>
<rect x="700" y="132" width="12" height="12" rx="3" fill="#ece9e3"><title>No versions on Friday, October 16, 2026</title></rect>
<rect x="700" y="148" width="12" height="12" rx="3" fill="#ece9e3"><title>No versions on Saturday, October 17, 2026</title></rect>
<rect x="716" y="52" width="12" height="12" rx="3" fill="#ece9e3"><title>No versions on Sunday, October 18, 2026</title></rect>
<rect x="716" y="68" width="12" height="12" rx="3" fill="#ece9e3"><title>No versions on Monday, October 19, 2026</title></rect>
<rect x="716" y="84" width="12" height="12" rx="3" fill="#ece9e3"><title>No versions on Tuesday, October 20, 2026</title></rect>
<rect x="716" y="100" width="12" height="12" rx="3" fill="#ece9e3"><title>No versions on Wednesday, October 21, 2026</title></rect>
<rect x="716" y="116" width="12" height="12" rx="3" fill="#ece9e3"><title>No versions on Thursday, October 22, 2026</title></rect>
<rect x="716" y="132" width="12" height="12" rx="3" fill="#ece9e3"><title>No versions on Friday, October 23, 2026</title></rect>
<rect x="716" y="148" width="12" height="12" rx="3" fill="#ece9e3"><title>No versions on Saturday, October 24, 2026</title></rect>
<rect x="732" y="52" width="12" height="12" rx="3" fill="#ece9e3"><title>No versions on Sunday, October 25, 2026</title></rect>
<rect x="732" y="68" width="12" height="12" rx="3" fill="#ece9e3"><title>No versions on Monday, October 26, 2026</title></rect>
<rect x="732" y="84" width="12" height="12" rx="3" fill="#ece9e3"><title>No versions on Tuesday, October 27, 2026</title></rect>
<rect x="732" y="100" width="12" height="12" rx="3" fill="#ece9e3"><title>No versions on Wednesday, October 28, 2026</title></rect>
<rect x="732" y="116" width="12" height="12" rx="3" fill="#ece9e3"><title>No versions on Thursday, October 29, 2026</title></rect>
<rect x="732" y="132" width="12" height="12" rx="3" fill="#ece9e3"><title>No versions on Friday, October 30, 2026</title></rect>
<rect x="732" y="148" width="12" height="12" rx="3" fill="#ece9e3"><title>No versions on Saturday, October 31, 2026</title></rect>
<rect x="748" y="52" width="12" height="12" rx="3" fill="#ece9e3"><title>No versions on Sunday, November 1, 2026</title></rect>
<rect x="748" y="68" width="12" height="12" rx="3" fill="#ece9e3"><title>No versions on Monday, November 2, 2026</title></rect>
<rect x="748" y="84" width="12" height="12" rx="3" fill="#ece9e3"><title>No versions on Tuesday, November 3, 2026</title></rect>
<rect x="748" y="100" width="12" height="12" rx="3" fill="#ece9e3"><title>No versions on Wednesday, November 4, 2026</title></rect>
<rect x="748" y="116" width="12" height="12" rx="3" fill="#ece9e3"><title>No versions on Thursday, November 5, 2026</title></rect>
<rect x="748" y="132" width="12" height="12" rx="3" fill="#ece9e3"><title>No versions on Friday, November 6, 2026</title></rect>
<rect x="748" y="148" width="12" height="12" rx="3" fill="#ece9e3"><title>No versions on Saturday, November 7, 2026</title></rect>
<rect x="764" y="52" width="12" height="12" rx="3" fill="#ece9e3"><title>No versions on Sunday, November 8, 2026</title></rect>
<rect x="764" y="68" width="12" height="12" rx="3" fill="#ece9e3"><title>No versions on Monday, November 9, 2026</title></rect>
<rect x="764" y="84" width="12" height="12" rx="3" fill="#ece9e3"><title>No versions on Tuesday, November 10, 2026</title></rect>
<rect x="764" y="100" width="12" height="12" rx="3" fill="#ece9e3"><title>No versions on Wednesday, November 11, 2026</title></rect>
<rect x="764" y="116" width="12" height="12" rx="3" fill="#ece9e3"><title>No versions on Thursday, November 12, 2026</title></rect>
<rect x="764" y="132" width="12" height="12" rx="3" fill="#ece9e3"><title>No versions on Friday, November 13, 2026</title></rect>
<rect x="764" y="148" width="12" height="12" rx="3" fill="#ece9e3"><title>No versions on Saturday, November 14, 2026</title></rect>
<rect x="780" y="52" width="12" height="12" rx="3" fill="#ece9e3"><title>No versions on Sunday, November 15, 2026</title></rect>
<rect x="780" y="68" width="12" height="12" rx="3" fill="#ece9e3"><title>No versions on Monday, November 16, 2026</title></rect>
<rect x="780" y="84" width="12" height="12" rx="3" fill="#ece9e3"><title>No versions on Tuesday, November 17, 2026</title></rect>
<rect x="780" y="100" width="12" height="12" rx="3" fill="#ece9e3"><title>No versions on Wednesday, November 18, 2026</title></rect>
<rect x="780" y="116" width="12" height="12" rx="3" fill="#ece9e3"><title>No versions on Thursday, November 19, 2026</title></rect>
<rect x="780" y="132" width="12" height="12" rx="3" fill="#ece9e3"><title>No versions on Friday, November 20, 2026</title></rect>
<rect x="780" y="148" width="12" height="12" rx="3" fill="#ece9e3"><title>No versions on Saturday, November 21, 2026</title></rect>
<rect x="796" y="52" width="12" height="12" rx="3" fill="#ece9e3"><title>No versions on Sunday, November 22, 2026</title></rect>
<rect x="796" y="68" width="12" height="12" rx="3" fill="#ece9e3"><title>No versions on Monday, November 23, 2026</title></rect>
<rect x="796" y="84" width="12" height="12" rx="3" fill="#ece9e3"><title>No versions on Tuesday, November 24, 2026</title></rect>
<rect x="796" y="100" width="12" height="12" rx="3" fill="#ece9e3"><title>No versions on Wednesday, November 25, 2026</title></rect>
<rect x="796" y="116" width="12" height="12" rx="3" fill="#ece9e3"><title>No versions on Thursday, November 26, 2026</title></rect>
<rect x="796" y="132" width="12" height="12" rx="3" fill="#ece9e3"><title>No versions on Friday, November 27, 2026</title></rect>
<rect x="796" y="148" width="12" height="12" rx="3" fill="#ece9e3"><title>No versions on Saturday, November 28, 2026</title></rect>
<rect x="812" y="52" width="12" height="12" rx="3" fill="#ece9e3"><title>No versions on Sunday, November 29, 2026</title></rect>
<rect x="812" y="68" width="12" height="12" rx="3" fill="#ece9e3"><title>No versions on Monday, November 30, 2026</title></rect>
<rect x="812" y="84" width="12" height="12" rx="3" fill="#ece9e3"><title>No versions on Tuesday, December 1, 2026</title></rect>
<rect x="812" y="100" width="12" height="12" rx="3" fill="#ece9e3"><title>No versions on Wednesday, December 2, 2026</title></rect>
<rect x="812" y="116" width="12" height="12" rx="3" fill="#ece9e3"><title>No versions on Thursday, December 3, 2026</title></rect>
<rect x="812" y="132" width="12" height="12" rx="3" fill="#ece9e3"><title>No versions on Friday, December 4, 2026</title></rect>
<rect x="812" y="148" width="12" height="12" rx="3" fill="#ece9e3"><title>No versions on Saturday, December 5, 2026</title></rect>
<rect x="828" y="52" width="12" height="12" rx="3" fill="#ece9e3"><title>No versions on Sunday, December 6, 2026</title></rect>
<rect x="828" y="68" width="12" height="12" rx="3" fill="#ece9e3"><title>No versions on Monday, December 7, 2026</title></rect>
<rect x="828" y="84" width="12" height="12" rx="3" fill="#ece9e3"><title>No versions on Tuesday, December 8, 2026</title></rect>
<rect x="828" y="100" width="12" height="12" rx="3" fill="#ece9e3"><title>No versions on Wednesday, December 9, 2026</title></rect>
<rect x="828" y="116" width="12" height="12" rx="3" fill="#ece9e3"><title>No versions on Thursday, December 10, 2026</title></rect>
<rect x="828" y="132" width="12" height="12" rx="3" fill="#ece9e3"><title>No versions on Friday, December 11, 2026</title></rect>
<rect x="828" y="148" width="12" height="12" rx="3" fill="#ece9e3"><title>No versions on Saturday, December 12, 2026</title></rect>
<rect x="844" y="52" width="12" height="12" rx="3" fill="#ece9e3"><title>No versions on Sunday, December 13, 2026</title></rect>
<rect x="844" y="68" width="12" height="12" rx="3" fill="#ece9e3"><title>No versions on Monday, December 14, 2026</title></rect>
<rect x="844" y="84" width="12" height="12" rx="3" fill="#ece9e3"><title>No versions on Tuesday, December 15, 2026</title></rect>
<rect x="844" y="100" width="12" height="12" rx="3" fill="#ece9e3"><title>No versions on Wednesday, December 16, 2026</title></rect>
<rect x="844" y="116" width="12" height="12" rx="3" fill="#ece9e3"><title>No versions on Thursday, December 17, 2026</title></rect>
<rect x="844" y="132" width="12" height="12" rx="3" fill="#ece9e3"><title>No versions on Friday, December 18, 2026</title></rect>
<rect x="844" y="148" width="12" height="12" rx="3" fill="#ece9e3"><title>No versions on Saturday, December 19, 2026</title></rect>
<rect x="860" y="52" width="12" height="12" rx="3" fill="#ece9e3"><title>No versions on Sunday, December 20, 2026</title></rect>
<rect x="860" y="68" width="12" height="12" rx="3" fill="#ece9e3"><title>No versions on Monday, December 21, 2026</title></rect>
<rect x="860" y="84" width="12" height="12" rx="3" fill="#ece9e3"><title>No versions on Tuesday, December 22, 2026</title></rect>
<rect x="860" y="100" width="12" height="12" rx="3" fill="#ece9e3"><title>No versions on Wednesday, December 23, 2026</title></rect>
<rect x="860" y="116" width="12" height="12" rx="3" fill="#ece9e3"><title>No versions on Thursday, December 24, 2026</title></rect>
<rect x="860" y="132" width="12" height="12" rx="3" fill="#ece9e3"><title>No versions on Friday, December 25, 2026</title></rect>
<rect x="860" y="148" width="12" height="12" rx="3" fill="#ece9e3"><title>No versions on Saturday, December 26, 2026</title></rect>
<rect x="876" y="52" width="12" height="12" rx="3" fill="#ece9e3"><title>No versions on Sunday, December 27, 2026</title></rect>
<rect x="876" y="68" width="12" height="12" rx="3" fill="#ece9e3"><title>No versions on Monday, December 28, 2026</title></rect>
<rect x="876" y="84" width="12" height="12" rx="3" fill="#ece9e3"><title>No versions on Tuesday, December 29, 2026</title></rect>
<rect x="876" y="100" width="12" height="12" rx="3" fill="#ece9e3"><title>No versions on Wednesday, December 30, 2026</title></rect>
<rect x="876" y="116" width="12" height="12" rx="3" fill="#ece9e3"><title>No versions on Thursday, December 31, 2026</title></rect>
<text x="44" y="182" font-size="11" font-weight="500" fill="#756e66">Less</text>
<rect x="74" y="172" width="12" height="12" rx="3" fill="#ece9e3"/>
<rect x="90" y="172" width="12" height="12" rx="3" fill="#f1cc70"/>
<rect x="106" y="172" width="12" height="12" rx="3" fill="#c9a24b"/>
<rect x="122" y="172" width="12" height="12" rx="3" fill="#9a7628"/>
<rect x="138" y="172" width="12" height="12" rx="3" fill="#57400f"/>
<text x="156" y="182" font-size="11" font-weight="500" fill="#756e66">More</text>
</svg>
